<svg id="Layer_1" data-name="Layer 1" xmlns="http://www.w3.org/2000/svg" viewBox="0 0 1186 500"><defs><style>.cls-1{fill:#f0c654;}.cls-2{fill:#419bbe;}.cls-3,.cls-4{fill:#ee6d44;}.cls-3{stroke:#ee6d44;stroke-miterlimit:10;}</style></defs><rect class="cls-1" x="-0.38" y="-0.25" width="1187" height="500.68"/><rect class="cls-2" x="572.12" y="-3.7" width="614" height="506.04"/><path class="cls-3" d="M394.12-4.46s1,47.85,29,72.34,52,49.38,38,122.88-81,90.34-59,132.44,66,102.2,42,135.12-23,44-23,44h336s63-50.14,50-101.43-9-22.45-44-84,34.47-120.17,34.47-120.17,73.5-79.13,51.5-105.93-53-33-51.5-63.21-11.5-32.1-11.5-32.1Z"/><path class="cls-1" d="M459.54,410.89a62.55,62.55,0,0,1,7.08,14.62,31,31,0,0,1,1.35,9.33,33.11,33.11,0,0,1-1.47,9.21,52.42,52.42,0,0,1-7.6,14.53c-2.93,4.1-5.95,7.67-8.78,11.05,4.5-5.42,9.37-11.09,13.27-18.38a75.17,75.17,0,0,1-9.48,13.47c-3.29,3.85-6.68,7.39-10.08,11.21,1.44-2.74,6.32-7.68,6.84-9.52,4.18-5,8.61-10.22,12.08-16.82a36.9,36.9,0,0,0,3.79-11A30.15,30.15,0,0,0,466,426.3,51.93,51.93,0,0,0,462,416c-1.54-3.12-3.14-6-4.64-8.71l-9-16.56C454.93,398.32,455.9,404.83,459.54,410.89Z"/><path class="cls-1" d="M433,496.5a18.13,18.13,0,0,1,.75-5.53A28.57,28.57,0,0,0,433,496.5Z"/><path class="cls-1" d="M414.26,266.87c2-2.16,4.05-4.28,6.08-6.28C418.41,262.72,416.3,264.77,414.26,266.87Z"/><path class="cls-1" d="M438.77,384.06c-.91-1.25-1.79-2.53-2.66-3.85L418.48,349C425,360.45,432.84,372.21,438.77,384.06Z"/><path class="cls-1" d="M443.84,395.87c3.08,5.16,6.11,10.4,9,15.63s5.8,10.59,7,16.34c-1.26-5.72-4.21-11-7.07-16.2S446.88,401.17,443.84,395.87Z"/><path class="cls-1" d="M453.36,189.65c-.16,0-.2-.23-.21-.57a4.4,4.4,0,0,0,.07-.92c1.5-4.35,2.78-8.74,3.87-13.16a31.6,31.6,0,0,1-.31,3.35c-.34,1.22-.65,2.19-.94,3l-.87,2.35A41.45,41.45,0,0,0,453.36,189.65Z"/><path class="cls-1" d="M412,269.24l-.15.28-2,2.24-.28.23C410.38,271.06,411.18,270.14,412,269.24Z"/><path class="cls-1" d="M451.47,195.22a1.24,1.24,0,0,0-.94.3c1-2.42,1.83-4.86,2.67-7.31,0,.32-.05.62-.05.87C452.83,190.78,451.78,193.28,451.47,195.22Z"/><path class="cls-1" d="M421.35,243.81a19.77,19.77,0,0,0-2.25,3.32c-3.38,2.82-6.9,5.62-11,9.32-.51.71-1.79,2-2.8,3.45-.89.56-1.81,1.25-2.76,2,4.37-4.55,8.83-8.68,13.12-12.76s8.41-8.08,12-12.21A82.87,82.87,0,0,1,421.35,243.81Z"/><path class="cls-1" d="M392.63,2.91c-.17,3.94-.44,8.07-.5,12.33a74.34,74.34,0,0,0,.79,13.07,44.57,44.57,0,0,0,3.94,12.74,39.17,39.17,0,0,0,7.44,10.23,51.31,51.31,0,0,1-7.24-13.06,48.82,48.82,0,0,1-2.77-14.29,57.52,57.52,0,0,1,.59-11.38c.47-3,1.1-5,1.76-5.59s.91.6.95,3-.14,5.88,0,9.87a56.57,56.57,0,0,0,1.51,12.66,35.45,35.45,0,0,0,4.59,10.88c-.67-1.69-.75-1.64-1.3-3.35a14.4,14.4,0,0,0,1,2.46,7.07,7.07,0,0,0,1.44,2.05,47.73,47.73,0,0,1-2.66-6.23,16.41,16.41,0,0,1-1-5.45c.46.92,1.05,1.77,1.55,2.64-.32-2.16-.73-4.72-1-7.54a69.42,69.42,0,0,1-.12-9.06,86.6,86.6,0,0,1,2.7-17.4,112.58,112.58,0,0,0-2.51,17.18A44.08,44.08,0,0,0,404,35.79a34.4,34.4,0,0,0,4.09,8,59.69,59.69,0,0,0,6.1,7.46,192.86,192.86,0,0,0,15.54,13.94c2.77,2.33,5.59,4.68,8.37,7.2,1.38,1.28,2.78,2.54,4.1,3.91l2,2c.67.68,1.29,1.4,1.93,2.1a104.84,104.84,0,0,1,22.75,39.37,105.38,105.38,0,0,1,4.42,22c1.83,16.37.36,32.34-2.62,47.3-1.49,7.49-3.41,14.75-5.55,21.79a206.87,206.87,0,0,1-7.39,20.71,82.23,82.23,0,0,1-6.47,11.21,98.85,98.85,0,0,1-10.21,12.57c-5.57,6.41-11.34,12-16.53,17.49s-9.85,11-12.8,16.3a41.26,41.26,0,0,0-2.15,4.06A28,28,0,0,0,408.2,297a19.85,19.85,0,0,0-.68,7.22c.36,5,2.81,11.3,6.29,17.91,1.75,3.33,3.73,6.78,5.82,10.41s4.18,7.25,6.3,10.91c4.24,7.32,8.58,14.74,13.12,22.27,3.62,6,6.41,15.56-3,1-8-11.89-15.69-24.28-23-36.69,1.47,1,4.61,7.2,6.74,9.68-5-9.55-9.62-17-13-25.27a122,122,0,0,0,9.06,17.1c-2.22-3.7-4.41-7.4-6.26-11.1a56.16,56.16,0,0,1-4.35-10.95c-.28-.9-.39-1.77-.6-2.64s-.29-1.73-.31-2.57a21.13,21.13,0,0,1,.11-4.91,28.23,28.23,0,0,1,3.53-10c1.41-2.48,3.56-4.41,5.91-6.63a51.12,51.12,0,0,0,7.65-8.78,100.55,100.55,0,0,0-11.68,12.47,40.63,40.63,0,0,0-4.08,6.5,25.53,25.53,0,0,0-2.21,6.62c-.8,4.38-.12,9.35,1.71,14.55A92.24,92.24,0,0,0,413,330l-.12-.09,8.42,14.19c2.74,4.65,5.46,9.25,8.26,14-1.84-2.9-3.74-5.84-5.16-8.51,7.56,14.18,15.5,27.91,23.44,41.64-12.5-18.58-24.73-38.86-36.75-59.24A117.56,117.56,0,0,1,403.38,317c-2-5-3.34-10.06-3.21-14.84a29.7,29.7,0,0,1,4-13.88,73.75,73.75,0,0,1,9.34-12.77,45.88,45.88,0,0,0-11.44,15.45,34.25,34.25,0,0,0-2.44,8.55,51.5,51.5,0,0,0-.45,7.89,27.64,27.64,0,0,1,1-13.28,42.3,42.3,0,0,1,6.85-12.3c6-7.8,13.83-14.69,21.63-22.1-1.08,1.18-2.13,2.34-3.14,3.52a119.66,119.66,0,0,0,14.79-14.68,116.78,116.78,0,0,0,12-17.74c.62-1.07,1.21-2.14,1.81-3.23-.6,1.07-1.19,2.15-1.81,3.23a108.8,108.8,0,0,1-10.84,15.65,163,163,0,0,1-12.78,13.25c3.68-4.06,7.87-8.18,12.55-13.72-2.85,2.75-6.75,6.67-10.77,10.34-5.07,5-10.25,9.75-15.07,14.58,7.33-7.58,15.14-15,21.26-22.92-5.13,5.45-10.66,10.46-16,15.53a164,164,0,0,0-15.18,15.75c4.75-6.28,10.46-11.93,16.16-17.59,4.94-4.6,9.95-9.23,14.61-14.37a98,98,0,0,0,12.27-17l-.76,1.41c.53-.92,1.05-1.85,1.55-2.79a157.68,157.68,0,0,0,7.22-14.78A106.65,106.65,0,0,0,461,200.31c.25-.78.51-1.54.76-2.31-.26,1.53-.27,2.33.81-.45a104.82,104.82,0,0,0,5.3-19.13c1.29-6.77,2.2-13.82,3.07-21.14a69.48,69.48,0,0,0-.32-14.7,7.7,7.7,0,0,0-.38-3c-.17-1.2-.41-2.41-.6-3.62a65.06,65.06,0,0,0-1.85-8.73c.69,2.83,1.32,5.77,1.85,8.73l.48,3.32a11.33,11.33,0,0,1-.89-3.14,117.81,117.81,0,0,1-.2,31.1A170.69,170.69,0,0,1,461.77,198c.24-1.26.56-3,.67-3.79-.43,2-.92,4.07-1.43,6.1q-3.31,9.72-7.41,19.15a42.19,42.19,0,0,0,1.68-5.38,139.69,139.69,0,0,1-14,25.74c-5.7,8.08-12.8,15-19.7,21.82-6.66,6.23-13.34,12.37-18.64,19.57a44.63,44.63,0,0,0-6.33,11.64,31.56,31.56,0,0,0-1.62,13,37.27,37.27,0,0,1,.55-7.15,35.34,35.34,0,0,1,2.09-6.92,53,53,0,0,1,7.79-12.6c-4,5.34-7.32,11.25-8.55,17.6s-.16,12.92,2.1,19.14a119.24,119.24,0,0,0,8.92,18.16q5.12,8.94,10.13,18c-3.28-3.82-7.28-9.36-9.86-11.45-.38.45,3.95,8.18,1,3.91a162.78,162.78,0,0,1-12.8-20.79c-3.15-6.18-5.09-11.46-7.23-15.58-.14-.19-.25,0-.35.53a12.06,12.06,0,0,0-.17,2.29v1.61l.11,1.76c.07,1.23.25,2.48.39,3.71s.34,2.38.49,3.39.29,1.83.32,2.42c.08,1.19-.18,1.36-1.07-.37a57.83,57.83,0,0,1-4.35-12.94,46.38,46.38,0,0,1-.87-9.54,42.72,42.72,0,0,1,1.59-10.54,53.62,53.62,0,0,1,5.12-11.3,13.09,13.09,0,0,0,1-2.25,94.23,94.23,0,0,1,11.81-14.8c3.76-3.94,7-7,9.36-9.13l5.08-4.64a15.37,15.37,0,0,1,2.58-1.58c.83-1.15,1.69-2.25,2.56-3.31,2.07-2,4-4.07,5.8-6.13a77.78,77.78,0,0,0,5-6.4,87.93,87.93,0,0,0,5.45-7.42c-.21,0-.68.27-.57-.34a159.1,159.1,0,0,0,9.08-19.32c1.32-2.61,2.58-5,3.87-7.07.46-4,2.26-10.1,3.85-16.83a114,114,0,0,0,3.27-20.1h-.06a109.17,109.17,0,0,0-.08-18.26c.1-1,.16-2,.27-2.92a20.58,20.58,0,0,1-.58-2.16c-.16-.66-.32-1.23-.45-1.59a124.84,124.84,0,0,0-2.16-13c-.18-.34-.52-.8-.87-1.37a10.31,10.31,0,0,1-1.06-2c-.26-.75-.51-1.51-.79-2.24s-.61-1.45-.9-2.16c-.57-1.44-1.28-2.79-1.94-4.15-.7-1.62-1.59-3.17-2.37-4.78s-1.72-3.15-2.71-4.67A96.56,96.56,0,0,0,433.9,86.07,178.84,178.84,0,0,0,420.32,73a1.28,1.28,0,0,1,0-1c-1.79-1-3.82-3.08-5.37-4.15.33.16.58.22.63.07-5-3.66-5.42-5-9.31-9.11-.91-.91-1.95-1.61-2.9-2.5l-1.22-1.52c-1.69-2.94-3.56-5.72-5.3-8.8a50,50,0,0,1-4.54-10,67.13,67.13,0,0,1-1.83-21.8C390.85,8.61,391.86,6.6,392.63,2.91Z"/><path class="cls-1" d="M457.49,173.39a124.26,124.26,0,0,0,2.87-17.47C460.08,162.21,459.78,168,457.49,173.39Z"/><path class="cls-1" d="M390.32,328.65a52.43,52.43,0,0,0,3.2,8.54,127.93,127.93,0,0,1-6-11.89,67.27,67.27,0,0,1-4.37-14,45.31,45.31,0,0,1-.11-16.27,49,49,0,0,1,5.49-15h.07a54.06,54.06,0,0,0-5,12.9c-.31,1.22-.52,2.5-.73,3.77s-.28,2.59-.4,3.88-.08,2.58,0,3.84.11,2.53.29,3.71A48.64,48.64,0,0,0,386,320.66,35.75,35.75,0,0,0,390.32,328.65Z"/><path class="cls-1" d="M453.15,189.08c0-.25,0-.55.05-.87l0-.05A4.4,4.4,0,0,1,453.15,189.08Z"/><path class="cls-1" d="M415.35,350.66l.77,1.35-6.29-10C411.62,344.58,413.48,347.57,415.35,350.66Z"/><path class="cls-1" d="M436.33,387.55l12.54,20.65c2.51,4.53,5.16,9,7.16,13.54s3.2,9.39,2.48,13.88A25.87,25.87,0,0,0,456,423.19a131.34,131.34,0,0,0-6.27-11.87Q443.08,399.47,436.33,387.55Z"/><path class="cls-1" d="M405.5,356.7c1.49,3,2.93,6,4.41,9.08l-5-8.77C405.4,357.46,405.36,356.86,405.5,356.7Z"/><path class="cls-1" d="M398.54,322.13c.34.74.68,1.48,1,2.2-1.08-1.79-2.08-3.63-3-5.5C397,319.48,397.81,321.08,398.54,322.13Z"/><path class="cls-1" d="M422.5,388.22l-3.6-6.48c.84,1.21,1.72,2.37,2.65,3.51A14.7,14.7,0,0,0,422.5,388.22Z"/><path class="cls-1" d="M442.08,421.25a51.78,51.78,0,0,1,3.69,7.34,89.14,89.14,0,0,0-5-8.89A6.79,6.79,0,0,1,442.08,421.25Z"/><path class="cls-1" d="M456.91,412.87c-.91-3.9-1.53-7.87-2.53-11.37.4,1.39.76,2.81,1.11,4.22a31.7,31.7,0,0,1-.82-6.24c.73.51.64,2,1.46,2.2,1.27,5.28,1.08,10.83.58,16C454.79,415.8,457.14,414.34,456.91,412.87Z"/><path class="cls-1" d="M453.84,393.5c.18.51.35,1,.51,1.51A4.82,4.82,0,0,1,453.84,393.5Z"/><path class="cls-1" d="M461.21,449.63a11.14,11.14,0,0,1-.43,1.92A11.14,11.14,0,0,1,461.21,449.63Z"/><path class="cls-1" d="M461.71,419.68a6,6,0,0,1,.37,1,69.57,69.57,0,0,1-.76,7.79C461.66,425.6,460.92,422.57,461.71,419.68Z"/><path class="cls-1" d="M463.19,416.79a31.75,31.75,0,0,1,.16-8A72.65,72.65,0,0,0,463.19,416.79Z"/><path class="cls-1" d="M459.7,472.66a.46.46,0,0,1,.22.31.62.62,0,0,0,0,.3c-.82.9-1.71,1.72-2.57,2.54.1-.28,0-.67.2-.92C458.54,474,459.27,474.16,459.7,472.66Z"/><path class="cls-1" d="M461.39,448.91l-.06-.09.09-.67.06-.06A4.48,4.48,0,0,1,461.39,448.91Z"/><path class="cls-1" d="M460.62,471.44a2.18,2.18,0,0,0,.75.31L460,473.26a1.35,1.35,0,0,0,0-.29C460,472.49,460.64,472.06,460.62,471.44Z"/><path class="cls-1" d="M470.12,458.54c.15-.44-.23-1-.29-1.3a18.62,18.62,0,0,0,2.28-3.23,6.58,6.58,0,0,0-.08-1.21,5.13,5.13,0,0,0,.83-.62,47.43,47.43,0,0,1-1.72,4.45c-.65,1.47-1.31,3-2.11,4.37C469.35,460.19,469.73,459.39,470.12,458.54Z"/><path class="cls-1" d="M421.54,505c2.3-2.69,6.35-4.33,7.8-7.83-3.6,2.07-7.92,5.56-10.06,4.11s3.91-3.87,6.11-6.11l-1,.17c.48-.08,1-.18,1-.64-1,.18-2.48.91-3.38.61l.14-.93c-2.83.05-6,2.42-8.85,2.46,11.69-2.47,20.58-14.06,27.91-23.64a36.06,36.06,0,0,0,5.7-17.89,8.12,8.12,0,0,1,.9-2.06c.4-.81.91-1.67,1.36-2.39.21-.7.34-1.42.51-2.13s.32-1.41.4-2.13a19.27,19.27,0,0,0,.11-4.37,89,89,0,0,1,1.22-9.14,48.13,48.13,0,0,0,.74-9.94c-.08-1.35,2.32-3.39,3.11.11a24.4,24.4,0,0,1,.83,8.9c-.74-.4-.19-1.78-.72-2.48a30.38,30.38,0,0,0-1.15,6c.12-1.39.21-2.79.26-4.21-.13,3.55-.76,7.31-1.18,11-.27,1.36-2.94,1.76-1.8,4a36.42,36.42,0,0,0,4.59-14.32.1.1,0,0,0,.05,0c.08-2.36.31-4.48.3-6.75a5.5,5.5,0,0,1,.07,2.05,36.83,36.83,0,0,0,.84-9.91,28.74,28.74,0,0,1,1.47,7.17,46.62,46.62,0,0,1-.07,7.47,139.55,139.55,0,0,1-2.33,14.37,7.44,7.44,0,0,0,1.49-4.09c.23-1.48.42-2.92,1.4-3.95a42.71,42.71,0,0,1-3.93,12.48,5.65,5.65,0,0,0,0-1,14.78,14.78,0,0,0-2,3.65c-.26.65-.53,1.3-.79,1.94a14.61,14.61,0,0,1-1,1.83l-.42.61c.15-.2.29-.4.42-.61l1.06-1.56.95-1.6c.31-.54.64-1.07.93-1.61l.81-1.64a7.17,7.17,0,0,1-.41,1.72,11,11,0,0,1-.91,1.76,6.89,6.89,0,0,0,2.11-2.36c.59-1.35,1.18-2.71,1.68-4.09-.3,1.1-.59,2.19-.84,3.28s-.36,2.2-.55,3.27a16.34,16.34,0,0,0,1.21-2.06c.37-.71.73-1.43,1.07-2.16.64-1.47,1.2-3,1.76-4.49-.37,1.72-.79,3.43-1.31,5.11a89.11,89.11,0,0,1-4.26,7.85l.12-.33-.3.62-.9,1.51-1,1.49a12.06,12.06,0,0,0-1,3.09l-.29.45c0-.41-.13-.68-.6-.22a16.4,16.4,0,0,0-2.57,3.45,20.15,20.15,0,0,1-1.3,1.86,9,9,0,0,1-1.76,1.59,8.22,8.22,0,0,0-1.94,2.5.44.44,0,0,0-.33.57l-.41.69a9.29,9.29,0,0,0-1.09,1.61,12.6,12.6,0,0,0,1.09-1.61c.15-.19.29-.38.43-.58a.94.94,0,0,1-.09.84,70.9,70.9,0,0,0,8.57-10.7c0,.34,0,.78,0,1,.1-.48.2-1,.31-1.44a41.5,41.5,0,0,0,2.11-3.95,3.5,3.5,0,0,0-.08,1.37A47.11,47.11,0,0,0,459.25,451a57.27,57.27,0,0,0,4-11.36,47.61,47.61,0,0,0-2.65,6.25c1.24-5.89,1.78-11.87,2.77-17.9.85,1.13,1.38,2.69,2.47,3.47.57,0,.91-2,1.16-.81,1.3,4.45-.56,7.35,2.29,9.64.39.24,1.55-.76,2.62-1.66s2.09-1.68,2.3-.79a36.87,36.87,0,0,1-.37,6.84c-.25.78-.47,1.6-.69,2.46-.09.09,0,.31.18.59a32.51,32.51,0,0,1-2.28,7.42l-.86,1.63a2.42,2.42,0,0,1-.94.49,4.8,4.8,0,0,1,0,1.25c-.76,1.42-1.58,2.78-2.32,4.16-.62.66-1.32,1.25-1.91,1.89.18.08.48.08.58.32-1,1.68-2,3.26-3,4.84a5.3,5.3,0,0,1-2.09,1.12c.17,1.3-.59,2.83-1.68,4.27s-2.39,2.91-3.29,4.21l.05,0c-1,1.25-2,2.48-3.11,3.67a4.84,4.84,0,0,1-.95.18,8.56,8.56,0,0,1-.3,1.08,19.4,19.4,0,0,1-3,1.89c0,.25.17.91-.1,1.23a22.33,22.33,0,0,0-1.64,1.77l-2.06,1.86q-1.81,1.51-3.64,2.94T437,496.7a2.55,2.55,0,0,1-.65-.47c-.09.58-.76.82-.92,1.26a.47.47,0,0,0-.16-.34c-.66,1.28-1.33,1-2.37,1.64-.19.19-.19.58-.33.82l-.35.22c-1.88,0-2.58,1.28-3.73,2.28l-4,2.38C423.41,505.13,422.51,504.84,421.54,505Z"/><path class="cls-1" d="M457.06,476.11c-1.13,1.09-2.31,2.08-3.48,3.07C454.62,477.93,455.18,476.56,457.06,476.11Z"/><path class="cls-1" d="M475.11,436.8a6.12,6.12,0,0,0,1.38-2,102.3,102.3,0,0,1-2.15,12.27h-.07C474.84,443.72,476.65,439.05,475.11,436.8Z"/><path class="cls-1" d="M459.92,473a1.35,1.35,0,0,1,0,.29h0A.62.62,0,0,1,459.92,473Z"/><path class="cls-1" d="M464.88,428.66l0-.35c.09.89.16,1.79.18,2.68A10.92,10.92,0,0,1,464.88,428.66Z"/><path class="cls-1" d="M465.56,419.12c-.19-1.82-.42-3.62-.7-5.42a43.52,43.52,0,0,1,.38-6.95A89.48,89.48,0,0,1,465.56,419.12Z"/><path class="cls-1" d="M476.42,429.15c.27-.82.62-1.65.9-2.49-.06.85-.15,1.69-.23,2.53C476.9,429,476.62,429.14,476.42,429.15Z"/><path class="cls-1" d="M464.91,436.13l0-.54c.12.48.25,1,.37,1.46C465.22,436.86,465.07,436.44,464.91,436.13Z"/><path class="cls-1" d="M477.86,420.18c0,.63-.09,1.25-.14,1.87a4.71,4.71,0,0,0-.52-1.09A2.26,2.26,0,0,0,477.86,420.18Z"/><path class="cls-1" d="M477.08,410.51c-.09-.85-.16-1.68-.18-2.48.19,1,.4,2,.55,3C477.22,410.78,477,410.63,477.08,410.51Z"/><path class="cls-2" d="M820.9,417.79a103.65,103.65,0,0,1,.78,16,49.08,49.08,0,0,1-3.51,17,42.83,42.83,0,0,1-4.24,7.82,57.49,57.49,0,0,1-5.22,6.5,109.62,109.62,0,0,1-11.11,10.2c5.82-4.8,11.87-10.11,16.7-17.4a61.27,61.27,0,0,1-11.78,12.93c-4.13,3.51-8.4,6.55-12.93,9.74a62.75,62.75,0,0,1,5.16-4.46c1.92-1.57,3.67-3.12,4.12-4,5.3-4.46,10.72-9.38,15-16a41.39,41.39,0,0,0,4.92-10.71,54.47,54.47,0,0,0,2.05-11.19,94.49,94.49,0,0,0,.21-10.72c0-1.73-.16-3.43-.24-5.15,0-.85-.08-1.71-.15-2.56l-.22-2.56c-.25-3.42-.71-6.8-1.14-10.18s-1-6.74-1.74-10a35.17,35.17,0,0,1,2.16,7.09,39.45,39.45,0,0,1,.77,6.3c0,1,.09,2,.13,2.92s0,1.9,0,2.84C820.63,414.07,820.76,415.9,820.9,417.79Z"/><path class="cls-2" d="M765.7,497.83l6.2-4.81C769.78,494.75,767.68,496.44,765.7,497.83Z"/><path class="cls-2" d="M745.92,259.54a61.37,61.37,0,0,1,.49-9C746.14,253.48,746,256.51,745.92,259.54Z"/><path class="cls-2" d="M809.93,383.36c-.62-1.51-1.21-3-1.79-4.59A199.44,199.44,0,0,0,793.52,344c1.7,3,3.3,6.21,5,9.38l2.35,4.84c.8,1.61,1.48,3.28,2.23,4.93A116,116,0,0,1,809.93,383.36Z"/><path class="cls-2" d="M811.7,396.74a137.15,137.15,0,0,1,2.85,18.64c.17,1.55.2,3.11.28,4.66s.16,3.09.15,4.62a71.86,71.86,0,0,1-.47,9.09,75.41,75.41,0,0,0,.37-9.05c0-1.53-.1-3.06-.17-4.6s-.12-3.08-.29-4.63A158.62,158.62,0,0,0,811.7,396.74Z"/><path class="cls-2" d="M782.69,173c-.15-.08,0-.32.17-.64a5.16,5.16,0,0,0,.63-.82l3-2.48,3-2.41c2-1.61,4-3.15,6.05-4.69-.92.87-1.63,1.84-2.61,2.67C788.52,168.14,787.15,168.37,782.69,173Z"/><path class="cls-2" d="M746,262.92l.09.32c.11,1,.21,2.05.32,3.06l0,.38C746.24,265.44,746.12,264.19,746,262.92Z"/><path class="cls-2" d="M777.74,177.57a1.22,1.22,0,0,0-1-.1q1.65-1.53,3.35-3l1.7-1.46,1.69-1.41c-.22.28-.43.55-.58.78-.66.71-1.61,1.57-2.56,2.46A19,19,0,0,0,777.74,177.57Z"/><path class="cls-2" d="M738.49,234.36a22.31,22.31,0,0,0-.58,4.83,73,73,0,0,0-3.58,16.69,49.11,49.11,0,0,0,.34,5.1,30.73,30.73,0,0,0-.49,3.83,83.3,83.3,0,0,1,1.74-21.31,102.16,102.16,0,0,1,6.65-20.25C741.14,226.79,739.74,230.45,738.49,234.36Z"/><path class="cls-2" d="M789.79,8.75a75.17,75.17,0,0,0,2.07,13,72.49,72.49,0,0,0,4.63,12.82,60.25,60.25,0,0,0,16,20.7,88.11,88.11,0,0,1-9.34-12,66.31,66.31,0,0,1-6.66-13.4,48.83,48.83,0,0,1-2.67-11.53c-.23-3.12,0-5.27.55-6,1.15-1.46,1.52,4.67,4,12.52a66.68,66.68,0,0,0,5.26,12.2,57.79,57.79,0,0,0,7.1,10.25c-1-1.63-1.06-1.58-2-3.25a19.09,19.09,0,0,0,1.49,2.38A10.11,10.11,0,0,0,812,48.4c-1-1.59-2.63-3.84-3.87-6.06a28.47,28.47,0,0,1-1.61-3.13,8.52,8.52,0,0,1-.8-2.27c.7.84,1.52,1.6,2.27,2.39C806.18,35,803.48,29,802,22.81s-1.73-12.49-.77-16.66a45.39,45.39,0,0,0,.89,16.39,57,57,0,0,0,7.29,16.91,70.54,70.54,0,0,0,13.09,15c5.11,4.5,11.3,8.29,17.58,12.7a83.92,83.92,0,0,1,9.31,7.43,35.64,35.64,0,0,1,7.77,10.3,30.87,30.87,0,0,1,3,12.88,43.24,43.24,0,0,1-1.74,12.62,70.46,70.46,0,0,1-10.83,21.64,129.78,129.78,0,0,1-15.26,17.22c-11.84,11.73-24,21.86-34.45,32.34L794,185.55c-1.25,1.31-2.45,2.61-3.63,3.94-2.36,2.65-4.58,5.37-6.69,8.11a128.63,128.63,0,0,0-11,16.89c-1.25,2.12-3.44,5.64-5.63,9.62a111.6,111.6,0,0,0-5.8,12.22,68.47,68.47,0,0,0-3.8,20.59,50,50,0,0,0,3.42,19.36,65.48,65.48,0,0,0,4.33,9.44,108.45,108.45,0,0,0,6,9.45c4.45,6.38,9.67,12.91,14.94,20.11a229.32,229.32,0,0,1,27.22,48.93c1.51,3.58,2.45,8.15,2.19,9.54-.12.7-.54.61-1.37-.75a29.34,29.34,0,0,1-1.56-3.06c-.64-1.37-1.47-3.09-2.41-5.25q-5-10.63-10.81-20.84c-3.89-6.8-8.14-13.4-12.61-19.83a19.26,19.26,0,0,1,3.66,4.48c1.45,2.09,3,4.37,4.09,5.73-2.81-5.09-5.68-9.56-8.65-13.92s-6.14-8.4-9.46-12.66c2.22,2.84,4.49,5.72,6.76,8.69s4.48,6.11,6.69,9.2l-4.19-5.89c-1.44-1.95-2.91-3.9-4.38-5.81-2.94-3.83-5.92-7.61-8.75-11.37-5.67-7.55-10.79-15.07-13.8-22.89-1.13-2.9-1.26-5.89-1.47-9.05a80.16,80.16,0,0,0-1.25-10.95,56.23,56.23,0,0,0,1.56,16.47,60.22,60.22,0,0,0,6.58,15.89,162.24,162.24,0,0,0,10.59,15.71c3.89,5.27,8.08,10.64,12,16.37l-.13-.08a197.39,197.39,0,0,1,17.82,30.6c-1.64-3.33-3.54-6.6-4.93-9.57a221.62,221.62,0,0,1,17.34,48.49c-1.64-5.83-3.64-11.61-5.76-17.39s-4.59-11.49-7.23-17.15-5.52-11.25-8.71-16.69c-1.51-2.76-3.23-5.41-4.86-8.11l-2.59-4-1.3-2-1.35-1.95c-7.19-10.48-15.28-19.82-21.67-29.54a81.14,81.14,0,0,1-7.94-14.84,64.73,64.73,0,0,1-3.91-15.73,40.08,40.08,0,0,0,1.18,9.62,59.35,59.35,0,0,0,3.51,9.71c2.94,6.27,6.88,12,9.5,17-6.14-8.54-11.34-17.41-13.56-27.27a64,64,0,0,1,.42-30.28c-.29,1.51-.41,3-.55,4.5q1.13-4.66,2.58-9.37c1-3.12,2.11-6.26,3.4-9.34a99.33,99.33,0,0,1,9.35-17.6c.68-1,1.31-1.93,2-2.88-.71.93-1.35,1.91-2,2.88a109.59,109.59,0,0,0-8.91,15.44,85,85,0,0,0-5.87,16.37,62.49,62.49,0,0,1,5.52-16.74,58.93,58.93,0,0,0-5.78,13,72.52,72.52,0,0,0-2.13,10.16,65.4,65.4,0,0,0-.69,10.25A82.18,82.18,0,0,1,750.73,246a106.12,106.12,0,0,1,3.72-14.73,78.52,78.52,0,0,0-6.06,21.38,67.09,67.09,0,0,0,.85,22.18,66.06,66.06,0,0,1-1.74-12.05,70.17,70.17,0,0,1,.53-12.2c2.17-13.57,8-26.47,15.61-38.2l-.8,1.39c.55-.91,1.1-1.82,1.68-2.71a150.3,150.3,0,0,1,10-13.2c3.16-3.85,6.23-7.66,9.41-11.4l1.75-1.74c-.94,1.27-1.31,2,.93-.05,9.77-8.33,20.07-18,32.16-26.89,1.58-1.17,3.35-2.68,5.26-4.36s3.9-3.62,5.92-5.69a8,8,0,0,0,2.18-2.25c.88-.88,1.73-1.82,2.58-2.76,1-1.12,2.14-2.21,3.16-3.37s2-2.35,2.91-3.55l-3,3.48c-1,1.16-2.07,2.28-3.1,3.44-.8.84-1.59,1.68-2.4,2.47a14.23,14.23,0,0,1,2-2.68c-15,15-33.09,27.16-48.63,42.21.78-1.06,2-2.44,2.46-3.07L786,184l-2.08,2.42a144.13,144.13,0,0,0-13.59,15.84c1.17-1.71,2.18-3.37,3.06-4.85a126.41,126.41,0,0,0-16.47,24.83,89.23,89.23,0,0,0-8.88,28.3,66.33,66.33,0,0,0,1.2,27.52c2.31,9,6.81,17.24,12.07,24.91a138.32,138.32,0,0,1-7.22-13.46,71.72,71.72,0,0,1-4.84-14.72c.37,1.69.91,3.34,1.41,5,.27.82.59,1.62.88,2.44s.61,1.62,1,2.41a71,71,0,0,0,4.72,9.28,186.77,186.77,0,0,0,12.12,17.33c4.3,5.65,8.75,11.3,12.74,17.32a181.28,181.28,0,0,1,11,18.56c-1.68-2-3.45-4.56-5.3-6.73-.9-1.1-1.78-2.14-2.6-3a20.94,20.94,0,0,0-2.31-2.13c-.2.25,1,2.27,1.65,3.77s1.1,2.37-.41.2c-5.75-7.77-10.69-14.29-15.1-19.62s-8.09-9.44-11.74-11.85c-.81-.38,1.45,4.46,3.41,8.57s3.47,7.56,1.07,5c-1.91-2.26-4.58-5.47-7.63-9.47a122.7,122.7,0,0,1-9.63-14.41,90.46,90.46,0,0,1-4.7-10.76,10.75,10.75,0,0,0-1.12-2.21,74.47,74.47,0,0,1-3.82-20,72.24,72.24,0,0,1,.78-15.07c.22-1.37.45-2.72.75-4s.55-2.66.91-4a15.54,15.54,0,0,1,1.51-3.27,39.77,39.77,0,0,1,1-5,117.07,117.07,0,0,1,8.57-19c2-3.22,4.24-6.27,6.44-9.24-.21,0-.76.3-.54-.4a166.55,166.55,0,0,1,15.47-19.62,56.6,56.6,0,0,1,7.14-5.79,45.1,45.1,0,0,1,5.62-6.51c1.19-1.17,2.49-2.4,3.86-3.65s2.83-2.48,4.31-3.75c6-5,12.52-10.08,17.55-14.48l-.06,0c5.19-4.3,10.25-8.65,15-13.21.89-.63,1.82-1.19,2.64-1.72.92-1.37,2.09-2.6,2.54-3.28,1-.88,1.77-1.79,2.64-2.62s1.72-1.64,2.46-2.47l2.25-2.41c.36-.4.76-.78,1.1-1.19l1-1.22a18.92,18.92,0,0,1,1.52-3.56c.8-1.36,1.62-2.7,2.36-4s1.24-2.71,1.85-4q.88-2.37,1.79-4.75a32.46,32.46,0,0,0,1.13-4.68,22.92,22.92,0,0,0,.08-7.38A16.74,16.74,0,0,0,844,87.77c-2.65-4.12-7.43-8.1-12.67-12a1.3,1.3,0,0,1-.07-1c-1.89-.84-4.19-2.71-5.89-3.61.35.12.61.15.64,0-5.5-3.16-6.21-4.51-10.68-8.42-1-.87-2.17-1.48-3.23-2.3l-1.38-1.42c-.5-.71-1-1.39-1.55-2s-1-1.37-1.56-2-1.07-1.32-1.62-2-1.06-1.35-1.6-2c-1.13-1.32-2.15-2.76-3.26-4.18s-2.09-3-3.12-4.56-1.84-3.3-2.6-5l-1.19-2.57-1-2.64c-.36-.87-.67-1.76-1-2.66l-.88-2.7c-.45-1.84-1-3.63-1.33-5.5C788.87,15.22,789.51,12.81,789.79,8.75Z"/><path class="cls-2" d="M797.05,160.85c5.26-4,10.46-7.87,15.54-11.79C807.3,153.5,802.74,157.78,797.05,160.85Z"/><path class="cls-2" d="M764,325.61c1.12,2.34,2.52,4.81,4.07,7.39-4.56-6.42-9.8-12.88-15-20-2.57-3.57-5.13-7.32-7.52-11.36a88.29,88.29,0,0,1-6.42-13.08l.06,0A106,106,0,0,0,744.78,300a127.16,127.16,0,0,0,6.82,10.81C756.3,317.45,760.81,322.83,764,325.61Z"/><path class="cls-2" d="M782.86,172.38c.15-.23.36-.5.58-.78l0,0A5.16,5.16,0,0,1,782.86,172.38Z"/><path class="cls-2" d="M790.35,345.57l.77,1.42c-2.07-3.53-4.28-7-6.52-10.39,1,1.31,1.91,2.76,2.89,4.26S789.42,343.94,790.35,345.57Z"/><path class="cls-2" d="M806.73,386.22a172.88,172.88,0,0,1,5.49,24.35,152.49,152.49,0,0,1,1,15.84,51.21,51.21,0,0,1-1.93,15c2.11-8.78,1.32-18.23.52-27.49A175.48,175.48,0,0,0,806.73,386.22Z"/><path class="cls-2" d="M780.37,351.4c1.43,2.92,2.61,6,3.87,9-1.46-2.95-2.86-5.9-4.47-8.74C780.25,352.14,780.23,351.56,780.37,351.4Z"/><path class="cls-2" d="M770.7,317.55l1.53,2c-1.44-1.59-2.9-3.18-4.35-4.76C768.46,315.3,769.75,316.65,770.7,317.55Z"/><path class="cls-2" d="M793.13,383.66q-1.05-3.42-2.18-6.8c.6,1.28,1.19,2.55,1.88,3.81A16.92,16.92,0,0,0,793.13,383.66Z"/><path class="cls-2" d="M800.69,419.75c.12,1.62.25,3.23.33,4.78s.09,3,.07,4.41c-.09-3.43-.52-7.36-.89-11.1A6.13,6.13,0,0,1,800.69,419.75Z"/><path class="cls-4" d="M450.68,400.84a111.93,111.93,0,0,1,8,12.84,50,50,0,0,1,5.39,15.58l.28,2.18c.09.72.08,1.48.12,2.22s.07,1.48,0,2.23l-.16,2.24a34.24,34.24,0,0,1-2,8.64,56.9,56.9,0,0,1-7.65,13.4,63.21,63.21,0,0,0,6.2-10.09,36.09,36.09,0,0,0,2.31-6.11,28.25,28.25,0,0,0,.72-3.31c.1-.55.22-1.11.28-1.67l.13-1.68a29.47,29.47,0,0,1-.72,4.92,30.89,30.89,0,0,1-1.38,4.58,43.07,43.07,0,0,1-4,7.72A104.34,104.34,0,0,1,448.34,467a60.62,60.62,0,0,1,3.79-5.34c1.45-1.94,2.73-3.86,2.93-4.82a53.08,53.08,0,0,0,5.35-9.4,30.22,30.22,0,0,0,1.82-5.54c.21-1,.41-1.94.59-2.91l.27-3a39.64,39.64,0,0,0-1.22-11.39,57.08,57.08,0,0,0-3.71-10.08,152.58,152.58,0,0,0-9.86-17.16c-1.71-2.67-3.34-5.23-4.92-7.79s-3.1-5.15-4.56-7.76a45.72,45.72,0,0,1,6.82,10A90.13,90.13,0,0,0,450.68,400.84Z"/><path class="cls-4" d="M436.4,487a16.6,16.6,0,0,1,1.07-5.26A25.19,25.19,0,0,0,436.4,487Z"/><path class="cls-4" d="M436.75,258.42l5.59-6.56C440.63,254.12,438.7,256.29,436.75,258.42Z"/><path class="cls-4" d="M429.43,375.48c-.84-1.24-1.69-2.5-2.48-3.82a234.78,234.78,0,0,1-13.68-32.09C417.47,351.71,423.94,363.84,429.43,375.48Z"/><path class="cls-4" d="M434.37,387c3.15,5,6.46,9.89,9.68,14.86a98.55,98.55,0,0,1,8.39,15.32A106.9,106.9,0,0,0,444,402C440.76,397.09,437.48,392.16,434.37,387Z"/><path class="cls-4" d="M466.66,178.36c-.16,0-.23-.21-.26-.54a3.8,3.8,0,0,0,0-.91c.45-2.24.91-4.48,1.36-6.72s.75-4.52,1.14-6.77c-.05,1.14.11,2.22,0,3.38a46.1,46.1,0,0,1-1.26,5.54A36.6,36.6,0,0,0,466.66,178.36Z"/><path class="cls-4" d="M434.58,260.81l-.15.28-1.95,2.22-.28.22C433,262.61,433.77,261.71,434.58,260.81Z"/><path class="cls-4" d="M465.41,184a1.2,1.2,0,0,0-.89.39c.6-2.49,1.26-5,1.84-7.46,0,.31,0,.61,0,.86C466.25,179.53,465.43,182.09,465.41,184Z"/><path class="cls-4" d="M440.84,235.41a25.67,25.67,0,0,0-1.59,3.48l-4.35,4.57c-.72.8-1.51,1.58-2.33,2.39s-1.67,1.67-2.55,2.55c-.4.68-1.51,1.9-2.38,3.26-.81.53-1.65,1.13-2.53,1.8,2-2.06,3.91-4.09,5.79-6.14l2.75-3.06,2.57-3.16,2.6-3.18c.86-1.07,1.61-2.23,2.43-3.34s1.61-2.25,2.43-3.38,1.49-2.36,2.26-3.54l-1.15,2-.58,1-.65.95C442.66,232.83,441.76,234.11,440.84,235.41Z"/><path class="cls-4" d="M391.91,6a24.34,24.34,0,0,0,.2,13.61,37.18,37.18,0,0,0,6.32,11.92,54.56,54.56,0,0,0,19.49,15.66,85.59,85.59,0,0,1-11.32-9,50.6,50.6,0,0,1-9-11.16,24.7,24.7,0,0,1-3.53-10.83c-.15-3,.58-5,1.25-5.53.33-.27.56-.12.7.36a19.17,19.17,0,0,1,.33,2.3A27.59,27.59,0,0,0,398.78,22a41.47,41.47,0,0,0,7,10.23A54.7,54.7,0,0,0,414.61,40c-1.29-1.27-1.29-1.27-2.53-2.57a13.36,13.36,0,0,0,4,3.24c-1.33-1.22-3.29-3-4.94-4.74a18.85,18.85,0,0,1-3.38-4.46c.86.58,1.74,1.13,2.63,1.66-1.32-1.8-2.92-3.91-4.44-6.23a34.94,34.94,0,0,1-3.78-7.4,14.88,14.88,0,0,1-.87-6.89,8.58,8.58,0,0,1,2.09-4.54,12.11,12.11,0,0,0-1.26,2.22,10.55,10.55,0,0,0-.67,2.6,14.43,14.43,0,0,0,.81,6.36c1.57,4.63,5.09,9.43,9.46,13.62A63.82,63.82,0,0,0,419,38.85c.64.46,1.31.9,2,1.35L423,41.53c1.4.89,2.84,1.75,4.29,2.61,5.85,3.42,12.1,6.66,18.39,10.25,3.15,1.79,6.31,3.72,9.41,5.8a73.51,73.51,0,0,1,9,7A54.25,54.25,0,0,1,472,76.06a56,56,0,0,1,5.65,10.39A83.16,83.16,0,0,1,483,108.6c.42,3.67.72,7.28.92,10.83s.44,7.09.5,10.6c.44,7.84.5,15.59.52,23.24-.17,7.64-.38,15.2-1.13,22.64a193.45,193.45,0,0,1-8.52,43.18,88,88,0,0,1-5.18,11.38L468.26,234c-.64,1.16-1.37,2.28-2.06,3.41l-2.06,3.31c-.68,1.07-1.31,2.13-2,3.07L458.68,249c-.59.86-1.11,1.77-1.75,2.59l-1.88,2.5-3.76,5c-1.3,1.59-2.61,3.22-3.92,4.74-5.23,6.18-10.43,11.84-14.85,17.52-2.47,2.93-4.75,5.79-6.77,8.62a59.07,59.07,0,0,0-5.11,8.33,34.28,34.28,0,0,0-2.83,8.05,36.27,36.27,0,0,0-.65,8.79c.28,6.26,2,13.2,4.49,20.45,1.25,3.63,2.72,7.41,4.27,11.11s3.24,7.42,5.07,11.1c1.46,2.94,2.72,6.68,2.6,7.94,0,.63-.48.64-1.39-.4a38.73,38.73,0,0,1-4.27-6.75A168.84,168.84,0,0,1,419,340.09a90,90,0,0,1-5.74-18.89,19.58,19.58,0,0,1,1.44,4.48,27.3,27.3,0,0,0,1.89,5.51,84,84,0,0,1-2.35-12.95,47.09,47.09,0,0,1,.27-11.81,45.64,45.64,0,0,0,.82,16.82,48.79,48.79,0,0,1-1.23-11,33.1,33.1,0,0,1,1.65-10.47c2.16-6.79,7-13.72,12.68-20.55a65.33,65.33,0,0,1,7.42-6.65,41.18,41.18,0,0,0,8.38-9.33c-8.94,9-18,17.09-24.4,26.15a48.28,48.28,0,0,0-4,6.88,31.9,31.9,0,0,0-2.47,7.15,36.32,36.32,0,0,0-.82,7.66,50.14,50.14,0,0,0,.72,8.1s0-.08-.08-.1a97,97,0,0,0,3.85,14.39q2.46,7.11,5.59,14.34A81.57,81.57,0,0,1,419,341.1a204.28,204.28,0,0,0,19.37,41.27,189.65,189.65,0,0,1-16.54-28.55c-2.38-5.07-4.58-10.32-6.54-15.6a95.56,95.56,0,0,1-4.48-15.88,53.6,53.6,0,0,1-.86-7.89,39.91,39.91,0,0,1,.41-7.68c.07-.63.19-1.25.32-1.86s.22-1.24.41-1.84l.5-1.81.63-1.78c.37-1.2,1-2.35,1.46-3.52s1.19-2.3,1.79-3.44a90.52,90.52,0,0,1,9.47-13c3.55-4.19,7.35-8.27,11.13-12.41a108.12,108.12,0,0,0-14,14.75c-2.15,2.65-4,5.36-5.76,7.88-.8,1.28-1.68,2.49-2.38,3.68l-1.11,1.72c-.33.57-.67,1.12-1,1.65a59.16,59.16,0,0,1,7.37-12.21,138.8,138.8,0,0,1,9.8-11.33c3.49-3.7,7.15-7.37,10.8-11.18,1.82-1.9,3.65-3.84,5.45-5.86.92-1,1.77-2,2.63-3.09l2.59-3.15c-.93,1.32-1.83,2.62-2.71,3.95a96.16,96.16,0,0,0,12.47-16.63l2.67-4.54c.46-.74.84-1.53,1.24-2.31l1.17-2.33,2.36-4.62c.71-1.57,1.41-3.12,2.1-4.67.52-1.1,1-2.18,1.54-3.29-.51,1.09-1,2.19-1.54,3.29a150.16,150.16,0,0,1-19.3,31.15l1.23-1.69c.42-.57.83-1.14,1.21-1.75.79-1.21,1.6-2.43,2.46-3.68s1.78-2.51,2.65-3.87l2.67-4.28c-.6.74-1.23,1.58-1.9,2.49s-1.32,1.92-2.13,2.9c-1.56,2-3.2,4.14-4.84,6.31-2.2,2.8-4.44,5.58-6.7,8.31s-4.73,5.24-7.13,7.73a124.62,124.62,0,0,0,10.27-12.3l2.33-3.17c.78-1,1.41-2.17,2.1-3.25s1.34-2.16,2-3.23a35.88,35.88,0,0,0,1.87-3.22c-.48.79-1,1.53-1.58,2.26l-1.65,2.23c-1.1,1.48-2.16,3-3.3,4.46l-3.55,4.28c-1.19,1.43-2.34,2.88-3.61,4.24-5,5.51-10.21,10.65-15.23,15.81,5.34-5.84,10.89-11.57,16-17.73a139.39,139.39,0,0,0,22.24-34.12c-.2.48-.4,1-.59,1.46l1.24-2.89c.55-1.22,1.12-2.45,1.66-3.69l1.45-3.79,1.45-3.8c.48-1.27.85-2.58,1.27-3.87s.69-2.34,1-3.5l.46-1.75.36-1.77q.69-3.54,1.26-7.05c.16-.79.31-1.57.47-2.36-.07,1.54,0,2.32.74-.53.4-1.52.78-3.06,1.13-4.62s.58-3.16.85-4.77.49-3.24.73-4.88.34-3.32.51-5c.72-6.72,1-13.68,1.8-20.83.19-1.88.21-4.09.22-6.52s-.12-5.06-.28-7.79a7,7,0,0,0-.17-3c-.05-1.17-.17-2.36-.26-3.55-.17-2.9-.26-5.81-.64-8.65.21,2.82.43,5.74.64,8.65,0,1.09.14,2.17.17,3.25a11.61,11.61,0,0,1-.59-3.11c.54,20-.49,40.84-4.85,61.31.05-1.26.21-3,.22-3.79l-.69,6.15-1.2,4.92-.6,2.47c-.19.82-.41,1.64-.66,2.45l-1.43,4.87-.71,2.44-.84,2.4c.28-1,.57-1.91.75-2.82s.31-1.8.42-2.63c-.38,1.14-.7,2.3-1.12,3.43l-1.28,3.38c-.85,2.25-1.64,4.53-2.66,6.71s-1.9,4.44-2.95,6.61l-3.3,6.45a158.06,158.06,0,0,1-16.23,24.09c-6.06,6.81-12.59,13-18.73,19.43S413,285.42,409,293.29c4.79-8.22,11.55-15.5,18.62-22.78A138.77,138.77,0,0,0,415,286.07,49.78,49.78,0,0,0,407,303.78a51.82,51.82,0,0,0,0,19.43,122.6,122.6,0,0,0,5.23,19.28c-1.27-2.11-2.59-4.69-3.8-7.11a59.33,59.33,0,0,0-3.22-6c-.27.17.14,2.4.43,4s.46,2.5-.45.08a60.46,60.46,0,0,1-4.29-24.27c.2-7.06,1.73-12.58,2-17,0-.44-.85.44-1.93,2-.51.81-1.1,1.79-1.71,2.85s-1.13,2.25-1.69,3.39l-1.36,3.26c-.36,1-.69,1.81-1,2.37-.53,1.13-.85,1.16-.74-.9a47.88,47.88,0,0,1,.95-6.07,54.27,54.27,0,0,1,2.28-7.43,70.1,70.1,0,0,1,8.59-15.49c.53-.68,1.07-1.38,1.62-2.07l1.68-2c1.12-1.39,2.29-2.68,3.47-4a8.76,8.76,0,0,0,1.16-1.8c4.08-4.66,8.1-8.84,11.51-12.44s6.2-6.6,8.14-8.71c1.41-1.6,2.74-3.21,4.11-4.81a14.27,14.27,0,0,1,2.29-1.75c.59-1.22,1.2-2.42,1.87-3.57l2.49-3.4c.8-1.15,1.51-2.36,2.27-3.53l2.23-3.54c.71-1.19,1.33-2.44,2-3.65q1.26-2,2.51-3.93c.74-1.36,1.49-2.72,2.22-4.07-.21,0-.65.32-.6-.29,1.54-3.14,2.71-6.43,4-9.67.68-1.61,1.13-3.31,1.68-5s1.1-3.3,1.56-5a60.59,60.59,0,0,1,3-7.27,44.65,44.65,0,0,1,.64-7.41c.22-1.44.37-3,.61-4.61s.48-3.29.73-5,.43-3.49.65-5.25l.33-2.65c.08-.89.16-1.78.23-2.66.15-1.76.3-3.5.44-5.18s.13-3.34.17-4.89h-.07c.06-1.56.17-3.12.2-4.7l.06-4.74c.09-3.17,0-6.37,0-9.59.15-1.06.34-2.08.52-3-.37-1.58-.46-3.26-.64-4,0-5.18.1-9.44,0-13.62a19.21,19.21,0,0,1-1.24-3.61A52.31,52.31,0,0,0,466.22,96a47.39,47.39,0,0,0-3.48-9.07,37.06,37.06,0,0,0-4.35-6.73,44.76,44.76,0,0,0-5.78-5.93,77.49,77.49,0,0,0-7-5.38c-2.48-1.72-5.08-3.37-7.75-5a1.28,1.28,0,0,1-.14-1c-1.87-.64-4.17-2.19-5.84-2.86.35.07.59.07.61-.08-5.4-2.36-6.08-3.47-10.69-6.3-1.08-.58-2.22-.93-3.32-1.46l-1.52-1c-4.77-4.28-10.28-7.62-15.5-12.74a55.21,55.21,0,0,1-6.78-8.79,35,35,0,0,1-4.46-10.72,17.39,17.39,0,0,1-.18-7.38A25.84,25.84,0,0,1,391.91,6Z"/><path class="cls-4" d="M469.14,161.77c.44-3,.76-6,1.15-8.94s.55-6,.83-9c-.16,3.23-.16,6.3-.38,9.28A40.62,40.62,0,0,1,469.14,161.77Z"/><path class="cls-4" d="M393.23,310.67a40,40,0,0,0-.73,9.95,63.72,63.72,0,0,1,0-14.55,55.59,55.59,0,0,1,3.76-14.62,70,70,0,0,1,6.87-12.61c1.28-1.94,2.65-3.71,4-5.51s2.77-3.46,4.2-5.08l.06,0c-2.22,2.64-4.71,5.75-7.17,9.14a72.35,72.35,0,0,0-6.74,11.31c-.46,1-.9,2.06-1.35,3.06s-.73,2.11-1.08,3.13a30.3,30.3,0,0,0-.87,3.08l-.36,1.5-.26,1.48a40.65,40.65,0,0,0-.54,5.37A29.35,29.35,0,0,0,393.23,310.67Z"/><path class="cls-4" d="M466.4,177.82c0-.25,0-.55,0-.86v-.05A3.8,3.8,0,0,1,466.4,177.82Z"/><path class="cls-4" d="M409.88,340.66c.17.49.34,1,.52,1.44a115.91,115.91,0,0,1-3.94-11C407.49,334.05,408.63,337.32,409.88,340.66Z"/><path class="cls-4" d="M426.92,378.89c4,6.87,8.38,13.56,13,20,2.81,4.27,5.59,8.5,8,12.85a54.6,54.6,0,0,1,5.48,13.29A60.09,60.09,0,0,0,448,413.22c-2.17-3.83-4.59-7.55-7-11.28C436,394.51,431.21,386.84,426.92,378.89Z"/><path class="cls-4" d="M399.09,344.78c1,3.36,2,6.67,3,10-1.28-3.28-2.51-6.49-3.67-9.83C398.86,345.53,398.92,344.91,399.09,344.78Z"/><path class="cls-4" d="M403.57,308.76c-.05.8-.13,1.61-.12,2.41-.1-1-.05-2.07-.08-3.11s.08-2.09.11-3.14C403.53,305.7,403.42,307.5,403.57,308.76Z"/><path class="cls-4" d="M413,379.11q-1.74-3.44-3.36-6.89c.77,1.31,1.62,2.56,2.5,3.8A15,15,0,0,0,413,379.11Z"/><path class="cls-4" d="M433.9,412.27c1.76,2.65,3.3,5.15,4.58,7.53-1.72-2.85-3.77-5.87-5.93-9A6.54,6.54,0,0,1,433.9,412.27Z"/><path class="cls-4" d="M821.94,406.28A62,62,0,0,1,824.08,423a56,56,0,0,1-2.81,16.86,80.66,80.66,0,0,1-6.76,14.54c-2.52,4.38-5.06,8.33-7.44,12.18,3.76-6.14,7.91-12.41,11.32-19.76a111.1,111.1,0,0,1-8.18,14.29c-2.79,4.26-5.63,8.43-8.8,13,1.3-3.14,5.52-9,5.8-10.87,3.52-5.62,7.34-11.41,10.46-18a59.33,59.33,0,0,0,3.83-10.52,57.28,57.28,0,0,0,1.73-11.18,67.54,67.54,0,0,0-2.58-21.92A103.92,103.92,0,0,0,812.77,382a36.48,36.48,0,0,1,6.41,12.62C820.36,398.61,821,402.37,821.94,406.28Z"/><path class="cls-4" d="M784.92,498.61l4.16-6.66C787.68,494.31,786.29,496.63,784.92,498.61Z"/><path class="cls-4" d="M739,255.57a71.79,71.79,0,0,1,2.46-8.72C740.58,249.71,739.69,252.61,739,255.57Z"/><path class="cls-4" d="M802.65,374.77l-3.06-3.88c-3.5-5.13-7.24-10.13-11.16-15s-7.89-9.71-11.87-14.58c4.36,5.28,9.1,10.55,13.7,16.07A125.22,125.22,0,0,1,802.65,374.77Z"/><path class="cls-4" d="M808.16,387.16a80.22,80.22,0,0,1,7.1,17.64,53,53,0,0,1,1.65,18.42,55.14,55.14,0,0,0-1.77-18.31A86,86,0,0,0,808.16,387.16Z"/><path class="cls-4" d="M786.72,174.25c-.14-.08,0-.33.17-.64a5.12,5.12,0,0,0,.63-.81q6-4.89,12.17-9.51c-.93.88-1.67,1.84-2.66,2.68C792.54,169.44,791.17,169.69,786.72,174.25Z"/><path class="cls-4" d="M738.29,258.88l0,.33c-.13,1-.3,2-.4,3.06l-.1.36C737.89,261.38,738.11,260.14,738.29,258.88Z"/><path class="cls-4" d="M781.79,178.57a1.22,1.22,0,0,0-1-.14q3.33-2.84,6.71-5.59c-.23.28-.43.54-.59.77C785.58,175,783.13,176.84,781.79,178.57Z"/><path class="cls-4" d="M736.92,229.53a20.56,20.56,0,0,0-1.46,4.56,83,83,0,0,0-7,15.3c-.09,1-.68,3-.8,5a31.18,31.18,0,0,0-1.35,3.6,80.17,80.17,0,0,1,2.6-10.31,91.16,91.16,0,0,1,3.74-9.85,120.59,120.59,0,0,1,10.14-18.28C740.82,222.72,738.87,226,736.92,229.53Z"/><path class="cls-4" d="M806.12,2.79A24.3,24.3,0,0,0,802,16.52a34,34,0,0,0,3.47,13.89,47.18,47.18,0,0,0,7.81,11.4,70.52,70.52,0,0,0,9.49,8.42A119.8,119.8,0,0,1,812.61,39a43.61,43.61,0,0,1-7-13.43,28.15,28.15,0,0,1-1.19-6.52c0-1,0-2,.06-2.91s.21-1.76.41-2.53.43-1.46.65-2.07.56-1.12.81-1.55a6.06,6.06,0,0,1,.38-.59A4.5,4.5,0,0,1,807.1,9a2.17,2.17,0,0,1,.71-.51c.41-.17.57.06.55.57a7.22,7.22,0,0,1-.18,1c0,.41-.14.89-.26,1.43a25,25,0,0,0-.07,9.34,36.81,36.81,0,0,0,4.83,12,50.12,50.12,0,0,0,7.85,9.63c-1.15-1.53-1.16-1.53-2.25-3.08a15.15,15.15,0,0,0,3.67,4c-1.19-1.5-3-3.66-4.42-5.73l-1-1.52c-.3-.5-.56-1-.8-1.43a7.84,7.84,0,0,1-.9-2.18c.74.77,1.56,1.47,2.36,2.17a77.36,77.36,0,0,1-3.33-7.14,28.92,28.92,0,0,1-2.08-8.25,13.53,13.53,0,0,1,1.1-7,10,10,0,0,1,3.57-4,11.36,11.36,0,0,0-3.51,4.31,13.18,13.18,0,0,0-1,6.44c.35,5,2.88,10.64,6.62,15.6.49.62,1,1.24,1.47,1.86l1.62,1.86c.57.62,1.14,1.24,1.72,1.85l1.79,1.84c2.43,2.44,5,4.86,7.72,7.33,5.33,5,11,10.08,15.94,16.53A52.61,52.61,0,0,1,855,76.52a58.07,58.07,0,0,1,3.68,11.71A105.74,105.74,0,0,1,860.39,112a70.84,70.84,0,0,1-1.08,12.13,38.32,38.32,0,0,1-1.8,6.27,31.32,31.32,0,0,1-3,5.9,38.93,38.93,0,0,1-3.89,5.06,54.92,54.92,0,0,1-4.31,4.32,111.2,111.2,0,0,1-9,7.23c-3.32,2.52-6.5,4.88-9.59,7.33s-6.13,4.9-9.07,7.41q-8.85,7.51-16.8,15.37A241.29,241.29,0,0,0,774,215.14c-1.52,2-4.24,5.34-7.06,9.08s-5.72,7.9-7.93,11.46a82.24,82.24,0,0,0-8.12,19.91,50.27,50.27,0,0,0-1.16,19.72,66.57,66.57,0,0,0,5.94,19.88,128.43,128.43,0,0,0,11.85,19.63c4.66,6.52,9.9,13,15.46,19.69s11.47,13.42,17.53,21c2.4,3,4.64,7,4.8,8.44.08.7-.35.74-1.54-.32a82.69,82.69,0,0,1-6.14-6.75c-5.15-5.83-10.31-11.3-15.31-16.9s-9.85-11.17-14.35-16.93c1.61.87,5.67,6.59,8.23,8.74-6.6-8.69-11.95-15.74-17.41-24.25a186.91,186.91,0,0,0,12.2,16.67,159.19,159.19,0,0,1-15.26-21.93c-.59-1-1.06-1.95-1.56-2.93s-1-2-1.49-3c-.87-2-1.84-4-2.52-6l-.56-1.53a12.33,12.33,0,0,1-.51-1.52l-.9-3.07a12,12,0,0,1-.37-1.55l-.32-1.54a30.22,30.22,0,0,1-.59-3.1,29.25,29.25,0,0,1,.64-9.09,73.75,73.75,0,0,0,1.35-11,67.73,67.73,0,0,0-1.78,8.15,57.39,57.39,0,0,0-.54,8.28A54.9,54.9,0,0,0,749.47,291c3.7,11.13,10.5,21.89,18.45,32a.42.42,0,0,0-.13-.07c7.16,9,14.16,17,21.64,25.87-2.4-2.69-4.88-5.35-6.81-7.83l7.79,9.84c2.62,3.29,5.25,6.67,7.79,10.09a182.4,182.4,0,0,1,14.09,21.65A242.2,242.2,0,0,0,790,353.12c-8-9.26-16.2-18.37-23.65-27.85a178.43,178.43,0,0,1-10.39-14.55c-.77-1.25-1.61-2.48-2.31-3.75l-2.16-3.79-1.93-3.86c-.67-1.28-1.16-2.61-1.74-3.9a69.56,69.56,0,0,1-4.62-15.95,64.84,64.84,0,0,1-.64-8.1,66.11,66.11,0,0,1,.47-8.08,43,43,0,0,0,.17,19.84c1.46,6.75,4.11,13,5.87,18.26-1.22-2.27-2.14-4.65-3.18-7a75.08,75.08,0,0,1-2.33-7.23,67.71,67.71,0,0,1-1.55-7.38,58.83,58.83,0,0,1-.49-7.51,61.25,61.25,0,0,1,1.92-15,80.18,80.18,0,0,1,5.33-14.59c-.54,1.46-1.08,2.89-1.48,4.35a175,175,0,0,1,9.58-17.48,133.77,133.77,0,0,1,12-16.33l2.38-2.66-2.38,2.66c-8.05,9.19-15.09,19-20.1,29.46A75.23,75.23,0,0,1,757.36,227a70.58,70.58,0,0,0-8.13,11.94,84.87,84.87,0,0,0-7.19,19.5c.5-2.6,1.24-5.15,2-7.68s1.64-5,2.63-7.43a131,131,0,0,1,6.5-13.87,92.44,92.44,0,0,0-10.21,19.91,70.79,70.79,0,0,0-4.3,21.86,70.2,70.2,0,0,1,4.36-24c5.08-12.84,13.07-24.47,22.16-35.25l-1,1.28,2-2.5c3.61-4.18,7.4-8.25,11.33-12.23,3.48-3.62,6.81-7.26,10.15-10.89l1.82-1.7c-1,1.24-1.39,1.94.94,0,10.05-8.17,20.1-18.13,32.66-26.18,3.29-2.13,7.46-5.25,12-8.76a7.65,7.65,0,0,0,2.46-1.94c1-.78,2-1.58,2.94-2.41a51.64,51.64,0,0,0,6.85-6.38,88.07,88.07,0,0,1-6.85,6.38c-.91.74-1.82,1.44-2.72,2.15a11.86,11.86,0,0,1,2.35-2.4c-4.22,3.26-8.63,6.18-12.95,9.24s-8.63,6.21-12.88,9.47c-8.51,6.53-16.86,13.46-24.84,20.84.82-1,2.07-2.41,2.55-3l-4.37,4.72c-5.13,4.79-10.06,9.77-14.72,15,1.32-1.61,2.5-3.16,3.49-4.58a183,183,0,0,0-19.37,22.87A112.49,112.49,0,0,0,743,247.25a64.84,64.84,0,0,0,1.51,54c-.47-1.16-.85-2.37-1.29-3.55l-.65-1.79c-.2-.6-.36-1.22-.54-1.83-.36-1.22-.74-2.43-1.09-3.66s-.56-2.5-.85-3.75a37.27,37.27,0,0,1-.67-3.8c-.19-1.28-.43-2.55-.51-3.84a65,65,0,0,1-.27-7.78,63.93,63.93,0,0,0,3.58,20.38,96.92,96.92,0,0,0,9.08,18.84c7.33,12,16.47,23,25.41,34.06-4-3.33-9-8.33-12-10.11-.33.52,5.42,7.74,1.74,3.82a165.22,165.22,0,0,1-16.2-19.46c-1.07-1.4-2-2.81-2.93-4.09L746,312.79,744.69,311c-.84-1.15-1.7-2.18-2.52-3.14a24.41,24.41,0,0,0-2.42-2.6c-.37-.26-.17.91.29,2.75s1.33,4.21,2.07,6.5c1.63,4.43,3,8.29.73,5.26A105.16,105.16,0,0,1,736,308.84a87.52,87.52,0,0,1-7-16.56,91.17,91.17,0,0,1-2.29-11.66,11.34,11.34,0,0,0-.59-2.44,76.4,76.4,0,0,1-.25-10.65,78.1,78.1,0,0,1,5.25-24.09c.48-1.28,1-2.5,1.56-3.74l1.68-3.63a19.55,19.55,0,0,1,2.11-2.84,48.7,48.7,0,0,1,1.85-4.61,154.85,154.85,0,0,1,11.41-17c2.45-2.81,5-5.5,7.48-8.12-.21-.07-.79.21-.49-.46,5.4-6.26,11-12.13,16.85-17.72a61.28,61.28,0,0,1,7.26-5.29c2.57-3.59,7.8-8.52,13.8-13.53s12.78-10.12,18.25-14.39l-.06,0q4.2-3.14,8.51-6.2c2.88-2,5.73-4,8.4-5.94,1-.51,1.93-1,2.82-1.35,1.09-1.21,2.33-2.25,2.81-2.85A42.83,42.83,0,0,0,844,127.6a25.16,25.16,0,0,1,.58-3,26.49,26.49,0,0,0,1.65-8c.19-1.72.32-3.59.42-5.56s.19-3.89.21-5.81A71.91,71.91,0,0,0,845.23,87,42.68,42.68,0,0,0,842.42,79,41.74,41.74,0,0,0,838,71.64a1.24,1.24,0,0,1,.23-1c-1.44-1.21-3.11-3.36-4.49-4.48.3.17.53.24.6.1a48.57,48.57,0,0,1-4.62-4.39c-1.17-1.26-2.23-2.53-4.22-4.46-.94-.82-2-1.39-3-2.16L821.12,54a85.66,85.66,0,0,0-6.57-7.45,71,71,0,0,1-7.16-8.35,48,48,0,0,1-5.22-10.66,32.14,32.14,0,0,1-1.75-12.27,19.39,19.39,0,0,1,.75-4.35,23.64,23.64,0,0,1,1.33-3.18c.55-.9,1-1.74,1.63-2.54S805.38,3.62,806.12,2.79Z"/><path class="cls-4" d="M801.19,162.18c5.38-4,10.84-7.83,16.37-11.54C811.77,154.87,807,159.11,801.19,162.18Z"/><path class="cls-4" d="M745,324.53a59.74,59.74,0,0,0,4.43,8.12,158.8,158.8,0,0,1-14.55-22.79,89.46,89.46,0,0,1-9.17-27.51l.06,0c.39,2,.8,4.05,1.22,6.2.57,2.08,1.1,4.26,1.75,6.42.36,1.06.72,2.12,1.09,3.19s.71,2.15,1.16,3.16l1.29,3.07c.43,1,.86,2,1.36,3C737.42,315.06,741.74,321.37,745,324.53Z"/><path class="cls-4" d="M786.89,173.61c.16-.23.36-.49.59-.77l0,0A5.12,5.12,0,0,1,786.89,173.61Z"/><path class="cls-4" d="M773.76,343.48l1,1.24q-4.14-4.55-8.16-9.2C768.89,337.91,771.3,340.65,773.76,343.48Z"/><path class="cls-4" d="M800.43,378.43A111.19,111.19,0,0,1,812,400.5,61.71,61.71,0,0,1,815.27,416a44.81,44.81,0,0,1-1.42,15c1.93-8.87,1-18.25-1.57-27.12A106.51,106.51,0,0,0,800.43,378.43Z"/><path class="cls-4" d="M765.09,351.12c2.08,2.79,4.12,5.65,6.16,8.47l-6.68-8.06C765.15,351.9,765,351.3,765.09,351.12Z"/><path class="cls-4" d="M752.12,316.79l1.43,2.07-2-2.51c-.67-.85-1.31-1.72-2-2.59C750.07,314.35,751.19,315.85,752.12,316.79Z"/><path class="cls-4" d="M786.66,380c-1.31-2-2.7-4-4.1-5.93,1,1.08,1.94,2.11,3,3.13A15.84,15.84,0,0,0,786.66,380Z"/><path class="cls-4" d="M802.24,411.17a39.82,39.82,0,0,1,1.08,7.93,51,51,0,0,0-1.82-9.51A5.44,5.44,0,0,1,802.24,411.17Z"/></svg>