<?xml version="1.0" encoding="utf-8"?>
<!-- Generator: Adobe Illustrator 26.0.2, SVG Export Plug-In . SVG Version: 6.00 Build 0)  -->
<svg version="1.1" id="Layer_1" xmlns="http://www.w3.org/2000/svg" xmlns:xlink="http://www.w3.org/1999/xlink" x="0px" y="0px"
	 viewBox="0 0 2652 1011" style="enable-background:new 0 0 2652 1011;" xml:space="preserve">
<style type="text/css">
	.st0{fill:#FF00FF;}
</style>
<g transform="translate(0.000000,1011.000000) scale(0.100000,-0.100000)">
	<path class="st0" d="M12335,9820c-27-5-81-12-120-16c-38-3-80-13-92-20c-12-8-35-14-50-14s-82-9-148-21s-154-24-195-28
		c-41-3-82-10-90-15c-17-12-264-50-410-64c-41-4-86-14-99-21c-24-13-105-27-226-38c-33-2-79-11-103-19c-23-8-56-14-72-14
		c-59,0-61-9-57-259c2-124,9-284,16-356c6-71,16-242,22-380c6-137,15-331,19-430c5-99,13-322,19-495s15-346,21-385
		c10-67,21-311,38-850c5-137,14-268,20-290c7-22,17-183,23-365c6-179,15-404,20-500s13-290,18-430s13-293,19-339s14-187,17-315
		c4-127,11-249,16-271s9-133,9-247v-207l-54-15c-30-9-66-16-80-16s-43-6-63-14c-53-20-228-50-247-43c-11,5-16,19-16,49
		c0,24-5,70-10,103c-6,33-15,101-21,150c-15,130-28,233-39,328c-12,94-24,193-39,322c-6,50-16,124-21,165c-6,41-14,113-20,160
		c-5,47-14,122-20,167c-5,46-15,120-20,165c-6,46-15,121-20,168s-14,122-20,168c-5,45-14,117-20,160c-5,42-14,115-19,162
		c-6,47-15,126-21,175c-6,50-16,125-21,168c-5,42-13,113-19,157c-26,210-31,250-40,325c-4,44-14,121-20,170c-6,50-16,125-21,168
		c-5,42-14,114-19,160c-6,45-15,120-21,167s-14,117-19,155c-5,39-13,111-19,160c-6,50-15,126-21,170c-19,162-50,425-50,438
		c0,4-566,6-1257,5l-1258-3l-12-285c-11-270-19-454-43-930c-6-113-15-306-21-430s-15-295-20-380c-6-85-12-407-15-715l-5-560l-23-25
		c-23-24-24-35-35-300c-14-330-30-600-40-695l-8-70l-2,70c0,39-6,120-11,180c-5,61-14,216-20,345c-15,345-28,627-40,875
		c-17,362-30,628-40,850c-23,505-30,663-40,865c-16,336-29,616-40,855c-5,121-14,315-20,430c-19,400-30,641-40,855
		c-5,118-9,219-10,223c0,5-8,6-18,3s-108-11-217-16c-230-12-475-25-725-40c-96-6-254-15-350-20s-258-15-360-21s-243-14-315-17
		l-130-7l-12-200c-6-110-16-265-22-345c-18-243-30-398-41-540c-5-74-14-196-20-270c-5-74-14-193-20-265c-5-71-14-192-20-267
		c-5-76-14-199-20-273c-5-74-14-196-20-270c-5-74-15-197-20-272c-6-76-15-196-20-268c-6-71-14-191-20-265c-5-74-14-193-20-265
		c-25-330-32-419-40-545c-5-74-14-193-20-265c-9-122-17-226-40-540c-5-71-14-188-19-260c-5-71-13-153-16-182c-7-47-9-51-26-40
		c-11,7-19,15-19,19s-18,31-40,60s-54,78-70,108c-17,30-62,105-100,165c-38,61-82,132-97,159s-42,68-60,92s-43,65-57,92
		s-36,62-49,78s-34,49-47,74s-35,63-50,85s-59,92-97,155c-139,228-156,255-176,277c-11,13-29,23-39,23c-14,0-91-146-342-647
		c-178-357-335-660-349-675l-25-27l-10,27c-6,15-13,70-16,122c-7,98-17,233-36,450c-15,174-41,496-60,730c-11,142-26,321-40,490
		c-6,63-15,169-20,235s-14,176-20,245s-15,181-21,250c-5,69-14,175-19,235c-26,312-32,380-41,490c-24,295-29,357-39,475
		c-5,69-14,179-20,245c-5,66-14,174-20,240c-5,66-14,174-20,240c-5,66-14,176-20,245s-15,181-21,250s-13,170-17,225l-7,100H1323H310
		l-42-43l-43-42l3-228c6-449,23-1813,32-2642c8-753,15-1323,38-3190l7-525l5124-3l5124-2l52-48c29-26,70-59,91-74s69-49,105-75
		c89-64,285-198,363-248c34-22,96-65,137-96s81-59,89-63c8-3,42-27,75-52s101-72,150-104c96-64,149-101,231-162c28-21,54-38,59-38
		c4,0,49-30,99-67c50-38,98-72,107-78c64-41,126-83,199-136c47-33,108-74,135-90c28-16,70-45,95-64c25-20,58-43,74-53
		c16-9,50-33,77-52s70-50,96-68c26-19,81-57,121-85c40-29,97-68,126-87c99-66,191-129,231-159c22-17,60-43,85-58s82-56,128-90
		c46-35,87-63,90-63c4,0,41-25,82-56c105-79,110-81,162-56c44,21,194,72,213,72c5,0,33,11,60,25c28,13,56,25,64,25c7,0,30,9,50,19
		s77,31,126,45c50,15,101,33,115,40s63,26,110,40c47,15,103,36,125,46s60,24,85,31s50,16,55,20c6,4,53,22,105,39
		c52,18,113,40,135,50s60,24,85,31s50,16,56,21c6,4,55,22,110,39c54,18,108,37,119,44s45,20,75,29c30,10,63,22,74,27
		c10,6,62,24,115,41c53,16,105,35,116,42s47,21,80,31s71,24,85,31c14,8,63,25,110,40s96,33,110,40s63,25,110,40c89,27,187,63,255,94
		c22,9,81,30,130,45c50,15,113,37,140,50c28,12,77,30,110,40s83,28,110,41c28,12,66,25,85,29s44,13,55,21c11,7,58,25,105,40
		s108,37,137,50c28,13,56,24,62,24c16,0,103,29,131,44c14,7,50,21,80,30c30,10,66,23,80,31c14,7,65,25,115,40c49,15,99,33,110,40
		s45,20,75,29c30,10,66,23,80,30s66,26,115,41c50,16,99,34,110,40c11,7,45,20,75,29c30,10,66,23,80,30c14,8,66,26,115,41
		c50,15,99,32,110,39s47,21,80,31s71,24,85,31c14,8,63,25,110,40s96,32,110,39s63,25,110,40c77,25,243,87,280,105c8,4,62,24,120,43
		c204,68,236,79,320,113c47,18,99,36,115,40c17,4,48,16,70,28l40,21l3075,5l3075,5v3475v3475l-165,7c-91,3-286,11-435,17
		c-1083,46-1326,54-1339,41c-8-8-13-172-18-553c-3-298-11-879-17-1292c-17-1144-29-2002-41-2860c-5-429-12-799-16-823
		c-5-39-6-41-22-25c-31,30-172,238-267,393c-27,44-74,115-102,156c-29,41-53,77-53,81c0,5-25,43-134,208c-14,22-43,66-64,98
		c-273,419-312,470-345,451c-13-8-56-61-99-124c-10-14-40-54-67-90s-62-82-78-103c-15-21-51-66-78-100c-28-34-62-80-77-102
		s-41-58-57-80c-17-22-42-56-56-75s-41-55-60-80s-54-72-76-105c-23-33-56-77-73-97c-17-21-58-72-91-114s-73-90-90-106l-30-29l-7,48
		c-7,45-18,239-38,648c-8,173-18,354-40,755c-6,102-15,271-20,375c-5,105-14,276-20,380c-6,105-15,273-20,375s-14,268-20,370
		c-5,102-14,271-20,375c-13,254-27,517-40,760c-25,446-29,532-40,820c-7,165-14,306-16,313c-3,9-175,12-819,12c-448,0-815-1-815-2
		c-1-2-5-77-10-168s-14-243-20-337c-5-95-14-249-20-343c-5-93-14-246-20-340c-5-93-14-246-20-340c-5-93-14-246-20-340
		c-5-93-14-246-20-340c-5-93-14-246-20-340c-5-93-14-245-20-337c-5-93-14-247-20-343c-5-96-15-251-20-345c-6-93-15-246-20-340
		c-5-93-14-244-20-335c-5-91-14-243-20-337c-5-95-15-251-20-345c-6-95-15-249-20-343c-25-453-30-525-36-587l-7-68h-40
		c-22,0-56,4-76,9s-72,17-116,27c-44,9-89,22-100,29c-11,6-51,17-90,24c-109,20-134,30-141,56c-13,52,35,1204,57,1380
		c11,85,18,234,38,840c9,276,37,743,47,790c3,17,10,140,14,275c17,523,31,785,43,810c7,16,14,117,19,280c13,460,27,773,37,870
		c13,120,20,238,25,463c5,211,7,207-92,207c-37,0-85,5-107,10s-105,12-185,16s-154,12-165,18s-85,14-165,17c-282,13-470,28-493,41
		c-13,8-81,16-172,20c-277,12-490,27-535,37c-25,6-83,10-130,11c-47,0-103,5-125,11c-101,27-423,39-595,22c-270-27-470-49-662-73
		c-147-18-360-41-488-51c-265-23-269-23-287-42c-17-17-18-135-23-2527c-3-1379-9-2512-13-2516c-5-5-43-12-85-17c-42-4-113-11-157-16
		s-105-13-135-19c-172-34-321-54-425-56l-60-1l-7,1435c-4,789-12,1667-18,1950c-5,283-12,817-15,1187l-6,671l-22,15
		c-16,10-69,17-182,22c-88,4-182,12-210,17c-27,5-133,14-235,19c-403,20-841,53-907,69c-23,5-102,10-175,10s-151,5-173,9
		C12747,9822,12394,9830,12335,9820z M17208,9483c4-37-3-41-29-17c-32,29-49,11-49-50c0-64,12-77,45-46c26,24,41,13,31-24
		c-6-24-31-36-73-36c-27,0-25-6-28,98c-2,74,0,84,19,98c12,8,35,13,51,12C17201,9515,17205,9510,17208,9483z M17076,9498
		c4-6-3-19-14-29c-19-15-22-28-22-89c0-53-3-71-12-67c-9,3-12,22-10,61c3,41-1,64-13,82c-9,14-14,31-12,38
		C16999,9510,17067,9513,17076,9498z M16956,9458c-3-13-6-48-6-78s-4-61-9-68c-4-7-34-15-65-18l-57-4l3,81c2,55,7,84,16,87
		c8,2,12-9,12-36c0-45,8-72,21-72c5,0,9,9,9,20c0,26,16,26,23-1s27-15,27,16c0,24-20,47-20,23c-1-20-30,23-30,44c0,22,16,24,24,3
		s24-19,31,5C16944,9488,16964,9485,16956,9458z M9421,7033c6-21,15-65,19-98c10-75,26-179,41-270c6-38,15-97,19-130
		c12-83,27-187,41-270c6-38,15-97,19-130c18-129,31-213,40-270c5-33,14-91,19-130c5-38,11-77,14-85s8-53,12-99l7-84l-269,6
		c-735,17-1113,27-1161,33l-53,6l6,246c3,136,10,370,16,520c5,150,9,373,9,496c0,208,1,224,19,240c23,21,197,32,746,45
		c187,4,363,9,392,9C9409,7070,9409,7070,9421,7033z M11680,4469c0-25-33-22-38,4c-2,12,3,17,17,17
		C11674,4490,11680,4484,11680,4469z M11646,1665c17-15,23-25,15-25c-16,0-51,29-51,42C11610,1694,11614,1692,11646,1665z
		 M12033,1584c26-21,47-45,47-55c0-25-8-24-36,4c-12,12-36,32-53,45s-31,28-31,33C11960,1629,11988,1619,12033,1584z M11804,1554
		c3-8,2-12-4-9s-10,10-10,16C11790,1575,11797,1572,11804,1554z M12208,1465c17-14,34-25,39-25c6,0,18-9,28-20s23-20,28-20
		c16,0,57-41,57-57c0-7-4-13-10-13c-12,0-104,69-108,81c-2,5-11,9-20,9c-19,0-62,39-62,57C12160,1497,12175,1493,12208,1465z"/>
</g>
</svg>
