<?xml version="1.0" standalone="no"?>
<!DOCTYPE svg PUBLIC "-//W3C//DTD SVG 20010904//EN"
 "http://www.w3.org/TR/2001/REC-SVG-20010904/DTD/svg10.dtd">
<svg version="1.0" xmlns="http://www.w3.org/2000/svg"
 width="2806.000000pt" height="1984.000000pt" viewBox="0 0 2806.000000 1984.000000"
 preserveAspectRatio="xMidYMid meet">

<g transform="translate(0.000000,1984.000000) scale(0.100000,-0.100000)"
fill="#000000" stroke="none">
<path d="M13035 12790 c-27 -5 -81 -12 -120 -16 -38 -3 -80 -13 -92 -20 -12
-8 -35 -14 -50 -14 -15 0 -82 -9 -148 -21 -66 -12 -154 -24 -195 -28 -41 -3
-82 -10 -90 -15 -17 -12 -264 -50 -410 -64 -41 -4 -86 -14 -99 -21 -24 -13
-105 -27 -226 -38 -33 -2 -79 -11 -103 -19 -23 -8 -56 -14 -72 -14 -59 0 -61
-9 -57 -259 2 -124 9 -284 16 -356 6 -71 16 -242 22 -380 6 -137 15 -331 19
-430 5 -99 13 -322 19 -495 6 -173 15 -346 21 -385 10 -67 21 -311 38 -850 5
-137 14 -268 20 -290 7 -22 17 -183 23 -365 6 -179 15 -404 20 -500 5 -96 13
-287 17 -425 5 -137 14 -295 20 -350 14 -119 33 -515 39 -817 l4 -216 -55 -16
c-30 -9 -66 -16 -80 -16 -14 0 -43 -6 -63 -14 -53 -20 -228 -50 -247 -43 -11
5 -16 19 -16 49 0 24 -5 70 -10 103 -6 33 -15 101 -21 150 -15 130 -28 233
-39 328 -12 94 -24 193 -39 322 -6 50 -16 124 -21 165 -6 41 -14 113 -20 160
-5 47 -14 122 -20 167 -5 46 -15 120 -20 165 -6 46 -15 121 -20 168 -5 47 -14
122 -20 168 -5 45 -14 117 -20 160 -5 42 -14 115 -19 162 -6 47 -15 126 -21
175 -6 50 -16 125 -21 168 -5 42 -13 113 -19 157 -26 210 -31 250 -40 325 -4
44 -14 121 -20 170 -6 50 -16 125 -21 168 -5 42 -14 114 -19 160 -6 45 -15
120 -21 167 -6 47 -14 117 -19 155 -5 39 -13 111 -19 160 -6 50 -15 126 -21
170 -19 162 -50 425 -50 438 0 4 -566 6 -1257 5 l-1258 -3 -12 -285 c-11 -270
-19 -454 -43 -930 -6 -113 -15 -306 -21 -430 -6 -124 -15 -295 -20 -380 -6
-85 -12 -407 -15 -715 l-5 -560 -23 -25 c-23 -24 -24 -35 -35 -300 -14 -332
-30 -600 -40 -695 l-8 -70 -2 70 c0 39 -6 120 -11 180 -5 61 -14 216 -20 345
-15 345 -28 627 -40 875 -17 362 -30 628 -40 850 -23 505 -30 663 -40 865 -16
336 -29 616 -40 855 -5 121 -14 315 -20 430 -19 400 -30 641 -40 855 -5 118
-9 219 -10 223 0 5 -8 6 -18 3 -10 -3 -108 -11 -217 -16 -230 -12 -475 -25
-725 -40 -96 -6 -254 -15 -350 -20 -96 -5 -256 -14 -355 -20 -99 -7 -241 -14
-315 -18 l-135 -7 -12 -200 c-6 -110 -16 -265 -22 -345 -18 -243 -30 -398 -41
-540 -5 -74 -14 -196 -20 -270 -5 -74 -14 -193 -20 -265 -5 -71 -14 -192 -20
-267 -5 -76 -14 -199 -20 -273 -5 -74 -14 -196 -20 -270 -5 -74 -15 -197 -20
-272 -6 -76 -15 -196 -20 -268 -6 -71 -14 -191 -20 -265 -5 -74 -14 -193 -20
-265 -25 -330 -32 -419 -40 -545 -5 -74 -14 -193 -20 -265 -9 -122 -17 -226
-40 -540 -5 -71 -14 -188 -19 -260 -5 -71 -13 -153 -16 -182 -7 -47 -9 -51
-26 -40 -11 7 -19 15 -19 19 0 4 -18 31 -40 60 -22 29 -54 78 -70 108 -17 30
-62 105 -100 165 -38 61 -82 132 -97 159 -15 27 -42 68 -60 92 -18 24 -43 65
-57 92 -14 27 -36 62 -49 78 -13 16 -34 49 -47 74 -13 25 -35 63 -50 85 -15
22 -59 92 -97 155 -139 228 -156 255 -176 277 -11 13 -29 23 -39 23 -14 0 -91
-146 -342 -647 -178 -357 -335 -660 -349 -675 l-25 -27 -10 27 c-6 15 -13 70
-16 122 -7 98 -17 233 -36 450 -15 174 -41 496 -60 730 -11 142 -26 321 -40
490 -6 63 -15 169 -20 235 -5 66 -14 176 -20 245 -6 69 -15 181 -21 250 -5 69
-14 175 -19 235 -26 312 -32 380 -41 490 -24 295 -29 357 -39 475 -5 69 -14
179 -20 245 -5 66 -14 174 -20 240 -5 66 -14 174 -20 240 -5 66 -14 176 -20
245 -6 69 -15 181 -21 250 -6 69 -13 170 -17 225 l-7 100 -1012 0 -1013 0 -42
-43 -43 -42 3 -228 c6 -434 22 -1802 32 -2637 8 -748 16 -1446 38 -3200 l7
-520 5124 -3 5124 -2 52 -48 c29 -26 70 -59 91 -74 21 -15 69 -49 105 -75 89
-64 285 -198 363 -248 34 -22 96 -65 137 -96 41 -31 81 -59 89 -63 8 -3 42
-27 75 -52 33 -25 101 -72 150 -104 96 -64 149 -101 231 -162 28 -21 54 -38
59 -38 4 0 49 -30 99 -67 50 -38 98 -72 107 -78 65 -42 125 -83 193 -132 44
-32 101 -70 127 -84 46 -26 71 -43 142 -100 18 -14 52 -37 77 -52 25 -15 65
-43 90 -62 25 -19 65 -47 90 -62 25 -15 73 -49 108 -76 34 -26 82 -60 106 -75
58 -36 172 -114 221 -151 22 -17 60 -43 85 -58 25 -15 82 -56 128 -90 46 -35
87 -63 90 -63 4 0 41 -25 82 -56 105 -79 110 -81 162 -56 44 21 194 72 213 72
5 0 33 11 60 25 28 13 56 25 64 25 7 0 30 9 50 19 20 10 77 31 126 45 50 15
101 33 115 40 14 7 63 26 110 40 47 15 103 36 125 46 22 10 60 24 85 31 25 7
50 16 55 20 6 4 53 22 105 39 52 18 113 40 135 50 22 10 60 24 85 31 25 7 50
16 56 21 6 4 55 22 110 39 54 18 108 37 119 44 11 7 45 20 75 29 30 10 66 23
80 30 14 8 66 26 115 41 50 15 99 33 111 40 12 8 48 21 80 31 32 9 64 20 70
25 6 5 55 23 110 40 54 17 110 37 124 45 14 7 63 25 110 40 89 27 187 63 255
94 22 9 81 30 130 45 50 15 113 37 140 50 28 12 77 30 110 40 33 10 83 28 110
41 28 12 66 25 85 29 19 4 44 13 55 21 11 7 58 25 105 40 47 15 108 37 137 50
28 13 56 24 62 24 16 0 103 29 131 44 14 7 50 21 80 31 30 9 74 26 96 36 23
11 74 29 113 40 40 10 82 26 94 33 12 8 47 21 77 30 30 10 66 23 80 30 14 7
66 26 115 41 50 16 99 34 110 40 11 7 45 20 75 29 30 10 66 23 80 30 14 8 66
26 115 41 50 15 99 32 110 39 11 7 47 21 80 31 33 10 71 24 85 31 14 8 63 25
110 40 47 15 96 32 110 39 14 7 63 25 110 40 77 25 243 87 280 105 8 4 62 24
120 43 204 68 236 79 320 113 47 18 99 36 115 40 17 4 48 16 70 28 l40 21
3075 5 3075 5 0 3475 0 3475 -165 7 c-91 3 -286 11 -435 17 -1083 46 -1326 54
-1339 41 -8 -8 -13 -172 -18 -553 -3 -298 -11 -882 -17 -1297 -19 -1294 -30
-2057 -41 -2860 -5 -426 -12 -794 -16 -818 -5 -39 -6 -41 -22 -25 -29 28 -155
213 -262 383 -29 47 -74 116 -99 153 -25 37 -50 75 -56 85 -12 21 -103 163
-139 217 -14 22 -43 66 -64 98 -268 412 -309 466 -342 452 -8 -3 -33 -31 -55
-61 -22 -31 -50 -68 -62 -83 -12 -16 -40 -52 -62 -82 -75 -102 -96 -130 -151
-199 -30 -37 -63 -81 -72 -97 -10 -15 -33 -48 -53 -73 -19 -25 -46 -61 -60
-80 -14 -19 -41 -55 -60 -80 -19 -25 -55 -74 -80 -110 -26 -36 -75 -101 -111
-145 -35 -44 -77 -97 -93 -118 -16 -21 -41 -47 -54 -57 l-25 -20 -6 63 c-6 59
-15 216 -36 632 -10 192 -22 417 -40 755 -6 102 -15 271 -20 375 -5 105 -14
276 -20 380 -6 105 -15 273 -20 375 -5 102 -14 268 -20 370 -5 102 -14 271
-20 375 -13 254 -27 517 -40 760 -25 446 -29 532 -40 820 -7 165 -14 306 -16
313 -3 9 -175 12 -819 12 -448 0 -815 -1 -815 -2 -1 -2 -5 -77 -10 -168 -5
-91 -14 -243 -20 -337 -5 -95 -14 -249 -20 -343 -5 -93 -14 -246 -20 -340 -5
-93 -14 -246 -20 -340 -5 -93 -14 -246 -20 -340 -5 -93 -14 -246 -20 -340 -5
-93 -14 -246 -20 -340 -5 -93 -14 -245 -20 -337 -5 -93 -14 -247 -20 -343 -5
-96 -15 -251 -20 -345 -6 -93 -15 -246 -20 -340 -5 -93 -14 -242 -19 -330 -6
-88 -15 -241 -21 -340 -5 -99 -15 -256 -20 -350 -6 -93 -15 -246 -20 -340 -24
-437 -30 -525 -36 -587 l-7 -68 -40 0 c-22 0 -56 4 -76 9 -20 5 -72 17 -116
27 -44 9 -89 22 -100 29 -11 6 -51 17 -90 24 -109 20 -134 30 -141 56 -13 52
35 1204 57 1380 11 85 18 234 38 840 9 276 37 743 47 790 3 17 10 140 14 275
17 523 31 785 43 810 7 16 14 117 19 280 13 460 27 773 37 870 13 120 20 238
25 463 5 211 7 207 -92 207 -37 0 -85 5 -107 10 -22 5 -105 12 -185 16 -80 4
-154 12 -165 18 -11 6 -85 14 -165 17 -282 13 -470 28 -493 41 -13 8 -81 16
-172 20 -277 12 -490 27 -535 37 -25 6 -83 10 -130 11 -47 0 -103 5 -125 11
-101 27 -423 39 -595 22 -274 -28 -478 -50 -662 -73 -145 -18 -359 -41 -488
-52 -264 -22 -269 -22 -287 -41 -17 -17 -18 -135 -23 -2527 -3 -1379 -9 -2512
-13 -2516 -5 -5 -43 -12 -85 -17 -42 -4 -113 -11 -157 -16 -44 -5 -105 -13
-135 -19 -172 -34 -321 -54 -425 -56 l-60 -1 -7 1435 c-4 789 -12 1667 -18
1950 -5 283 -12 817 -15 1187 l-6 671 -22 15 c-16 10 -69 17 -182 22 -88 4
-182 12 -210 17 -27 5 -133 14 -235 19 -403 20 -841 53 -907 69 -23 5 -102 10
-175 10 -73 0 -151 5 -173 9 -58 13 -411 21 -470 11z m4873 -337 c4 -37 -3
-41 -29 -17 -32 29 -49 11 -49 -50 0 -64 12 -77 45 -46 26 24 41 13 31 -24 -6
-24 -31 -36 -73 -36 -27 0 -25 -6 -28 98 -2 74 0 84 19 98 12 8 35 13 51 12
26 -3 30 -8 33 -35z m-132 15 c4 -6 -3 -19 -14 -29 -19 -15 -22 -28 -22 -89 0
-53 -3 -71 -12 -67 -9 3 -12 22 -10 61 3 41 -1 64 -13 82 -9 14 -14 31 -12 38
6 16 74 19 83 4z m-120 -40 c-3 -13 -6 -48 -6 -78 0 -30 -4 -61 -9 -68 -4 -7
-34 -15 -65 -18 l-57 -4 3 81 c2 55 7 84 16 87 8 2 12 -9 12 -36 0 -45 8 -72
21 -72 5 0 9 9 9 20 0 26 16 26 23 -1 7 -27 27 -15 27 16 0 24 -20 47 -20 23
-1 -20 -30 23 -30 44 0 22 16 24 24 3 8 -21 24 -19 31 5 9 28 29 25 21 -2z
m-7535 -2425 c6 -21 15 -65 19 -98 10 -75 26 -179 41 -270 6 -38 15 -97 19
-130 12 -83 27 -187 41 -270 6 -38 15 -97 19 -130 18 -129 31 -213 40 -270 5
-33 14 -91 19 -130 5 -38 11 -77 14 -85 3 -8 8 -53 12 -99 l7 -84 -269 6
c-735 17 -1113 27 -1161 33 l-53 6 6 246 c3 136 10 370 16 520 5 150 9 373 9
496 0 208 1 224 19 240 23 21 197 32 746 45 187 4 363 9 392 9 52 2 52 2 64
-35z m2259 -2564 c0 -25 -33 -22 -38 4 -2 12 3 17 17 17 15 0 21 -6 21 -21z
m-34 -2804 c17 -15 23 -25 15 -25 -16 0 -51 29 -51 42 0 12 4 10 36 -17z m387
-81 c26 -21 47 -45 47 -55 0 -25 -8 -24 -36 4 -12 12 -36 32 -53 45 -17 13
-31 28 -31 33 0 18 28 8 73 -27z m-229 -30 c3 -8 2 -12 -4 -9 -6 3 -10 10 -10
16 0 14 7 11 14 -7z m404 -89 c17 -14 34 -25 39 -25 6 0 18 -9 28 -20 10 -11
23 -20 28 -20 16 0 57 -41 57 -57 0 -7 -4 -13 -10 -13 -12 0 -104 69 -108 81
-2 5 -11 9 -20 9 -19 0 -62 39 -62 57 0 20 15 16 48 -12z"/>
</g>
</svg>
